<svg width="158" height="158" viewBox="0 0 158 158" fill="none" xmlns="http://www.w3.org/2000/svg">
<path d="M0 27C0 12.0883 12.0883 0 27 0H131C145.912 0 158 12.0883 158 27V131C158 145.912 145.912 158 131 158H27C12.0883 158 0 145.912 0 131V27Z" fill="white"/>
<path fill-rule="evenodd" clip-rule="evenodd" d="M79 29C84.2261 29 89.2647 29.8023 94 31.2896V49H119V48.9951L119.003 49H119V74H94V99H119V74H128.752C128.916 75.6446 129 77.3125 129 79C129 106.614 106.614 129 79 129C51.3858 129 29 106.614 29 79C29 51.3858 51.3858 29 79 29ZM69 74H94V49H69V74Z" fill="black"/>
</svg>
