<svg width="244" height="55" viewBox="0 0 244 55" fill="none" xmlns="http://www.w3.org/2000/svg">
<path fill-rule="evenodd" clip-rule="evenodd" d="M24.5 3C27.0608 3 29.5297 3.39312 31.85 4.12188V12.8H44.1V12.7976C44.1006 12.7984 44.1011 12.7992 44.1017 12.8H44.1V25.05H31.85V37.3H44.1V25.05H48.8787C48.9587 25.8558 49 26.6731 49 27.5C49 41.031 38.031 52 24.5 52C10.969 52 0 41.031 0 27.5C0 13.969 10.969 3 24.5 3ZM19.6 25.05H31.85V12.8H19.6V25.05Z" fill="#FAFAFA"/>
<path d="M61.932 44V13.76H75.456C77.64 13.76 79.544 14.138 81.168 14.894C82.792 15.622 84.052 16.658 84.948 18.002C85.844 19.346 86.292 20.914 86.292 22.706C86.292 24.47 85.844 26.024 84.948 27.368C84.052 28.684 82.792 29.72 81.168 30.476C79.544 31.204 77.64 31.568 75.456 31.568H67.056V26.822H75.288C76.828 26.822 78.004 26.472 78.816 25.772C79.656 25.044 80.076 24.036 80.076 22.748C80.076 21.432 79.67 20.438 78.858 19.766C78.046 19.066 76.856 18.716 75.288 18.716H68.4V44H61.932ZM78.984 44L66.846 28.292H73.692L87.72 44H78.984ZM102.867 44C102.699 43.384 102.573 42.726 102.489 42.026C102.433 41.326 102.405 40.514 102.405 39.59H102.237V29.468C102.237 28.6 101.943 27.928 101.355 27.452C100.795 26.948 99.9552 26.696 98.8352 26.696C97.7712 26.696 96.9172 26.878 96.2732 27.242C95.6572 27.606 95.2512 28.138 95.0552 28.838H89.0492C89.3292 26.906 90.3232 25.31 92.0312 24.05C93.7392 22.79 96.0772 22.16 99.0452 22.16C102.125 22.16 104.477 22.846 106.101 24.218C107.725 25.59 108.537 27.564 108.537 30.14V39.59C108.537 40.29 108.579 41.004 108.663 41.732C108.775 42.432 108.943 43.188 109.167 44H102.867ZM95.3912 44.42C93.2632 44.42 91.5692 43.888 90.3092 42.824C89.0492 41.732 88.4192 40.29 88.4192 38.498C88.4192 36.51 89.1612 34.914 90.6452 33.71C92.1572 32.478 94.2572 31.68 96.9452 31.316L103.203 30.434V34.088L97.9952 34.886C96.8752 35.054 96.0492 35.362 95.5172 35.81C94.9852 36.258 94.7192 36.874 94.7192 37.658C94.7192 38.358 94.9712 38.89 95.4752 39.254C95.9792 39.618 96.6512 39.8 97.4912 39.8C98.8072 39.8 99.9272 39.45 100.851 38.75C101.775 38.022 102.237 37.182 102.237 36.23L102.825 39.59C102.209 41.186 101.271 42.39 100.011 43.202C98.7512 44.014 97.2112 44.42 95.3912 44.42ZM122.589 44.42C120.349 44.42 118.375 43.944 116.667 42.992C114.959 42.04 113.615 40.724 112.635 39.044C111.683 37.364 111.207 35.446 111.207 33.29C111.207 31.134 111.683 29.216 112.635 27.536C113.615 25.856 114.959 24.54 116.667 23.588C118.375 22.636 120.349 22.16 122.589 22.16C124.465 22.16 126.145 22.51 127.629 23.21C129.141 23.882 130.373 24.82 131.325 26.024C132.305 27.228 132.935 28.642 133.215 30.266H127.125C126.817 29.23 126.257 28.446 125.445 27.914C124.661 27.382 123.737 27.116 122.673 27.116C121.665 27.116 120.783 27.368 120.027 27.872C119.299 28.376 118.739 29.09 118.347 30.014C117.955 30.938 117.759 32.03 117.759 33.29C117.759 34.55 117.955 35.642 118.347 36.566C118.739 37.49 119.299 38.204 120.027 38.708C120.783 39.212 121.665 39.464 122.673 39.464C123.737 39.464 124.661 39.198 125.445 38.666C126.257 38.134 126.817 37.35 127.125 36.314H133.215C132.935 37.938 132.305 39.352 131.325 40.556C130.373 41.76 129.141 42.712 127.629 43.412C126.145 44.084 124.465 44.42 122.589 44.42ZM136.471 44V13.76H142.771V44H136.471ZM157.871 44.42C155.491 44.42 153.419 43.958 151.655 43.034C149.891 42.082 148.519 40.766 147.539 39.086C146.587 37.406 146.111 35.474 146.111 33.29C146.111 31.078 146.587 29.146 147.539 27.494C148.519 25.814 149.877 24.512 151.613 23.588C153.349 22.636 155.365 22.16 157.661 22.16C159.873 22.16 161.791 22.608 163.415 23.504C165.039 24.4 166.299 25.646 167.195 27.242C168.091 28.838 168.539 30.714 168.539 32.87C168.539 33.318 168.525 33.738 168.497 34.13C168.469 34.494 168.427 34.844 168.371 35.18H149.807V31.022H163.289L162.197 31.778C162.197 30.042 161.777 28.768 160.937 27.956C160.125 27.116 159.005 26.696 157.577 26.696C155.925 26.696 154.637 27.256 153.713 28.376C152.817 29.496 152.369 31.176 152.369 33.416C152.369 35.6 152.817 37.224 153.713 38.288C154.637 39.352 156.009 39.884 157.829 39.884C158.837 39.884 159.705 39.716 160.433 39.38C161.161 39.044 161.707 38.498 162.071 37.742H167.993C167.293 39.814 166.089 41.452 164.381 42.656C162.701 43.832 160.531 44.42 157.871 44.42ZM184.971 44.42C182.927 44.42 181.261 43.944 179.973 42.992C178.713 42.04 177.971 40.738 177.747 39.086L178.083 39.044V44H171.909V13.76H178.209V27.326L177.831 27.242C178.139 25.674 178.951 24.442 180.267 23.546C181.611 22.622 183.291 22.16 185.307 22.16C187.239 22.16 188.905 22.622 190.305 23.546C191.733 24.442 192.825 25.716 193.581 27.368C194.365 29.02 194.757 30.966 194.757 33.206C194.757 35.474 194.351 37.448 193.539 39.128C192.727 40.808 191.593 42.11 190.137 43.034C188.681 43.958 186.959 44.42 184.971 44.42ZM183.207 39.38C184.691 39.38 185.895 38.848 186.819 37.784C187.743 36.72 188.205 35.208 188.205 33.248C188.205 31.288 187.729 29.79 186.777 28.754C185.853 27.718 184.635 27.2 183.123 27.2C181.667 27.2 180.463 27.732 179.511 28.796C178.587 29.832 178.125 31.33 178.125 33.29C178.125 35.25 178.587 36.762 179.511 37.826C180.463 38.862 181.695 39.38 183.207 39.38ZM198.118 44V22.58H204.418V44H198.118ZM197.908 19.724V12.92H204.628V19.724H197.908ZM219.274 44.462C216.53 44.462 214.486 43.804 213.142 42.488C211.826 41.144 211.168 39.114 211.168 36.398V17.792L217.468 15.44V36.608C217.468 37.56 217.734 38.274 218.266 38.75C218.798 39.226 219.624 39.464 220.744 39.464C221.164 39.464 221.556 39.422 221.92 39.338C222.284 39.254 222.648 39.156 223.012 39.044V43.832C222.648 44.028 222.13 44.182 221.458 44.294C220.814 44.406 220.086 44.462 219.274 44.462ZM207.178 27.368V22.58H223.012V27.368H207.178Z" fill="#FAFAFA"/>
<path d="M225.391 7.39453V6H231.961V7.39453H229.512V14H227.84V7.39453H225.391ZM233.043 6H235.129L237.332 11.375H237.426L239.629 6H241.715V14H240.074V8.79297H240.008L237.938 13.9609H236.82L234.75 8.77344H234.684V14H233.043V6Z" fill="#FAFAFA"/>
<path fill-rule="evenodd" clip-rule="evenodd" d="M24.5 3C27.0608 3 29.5297 3.39312 31.85 4.12188V12.8H44.1V12.7976C44.1006 12.7984 44.1011 12.7992 44.1017 12.8H44.1V25.05H31.85V37.3H44.1V25.05H48.8787C48.9587 25.8558 49 26.6731 49 27.5C49 41.031 38.031 52 24.5 52C10.969 52 0 41.031 0 27.5C0 13.969 10.969 3 24.5 3ZM19.6 25.05H31.85V12.8H19.6V25.05Z" fill="#1B1B1B"/>
<path d="M61.932 44V13.76H75.456C77.64 13.76 79.544 14.138 81.168 14.894C82.792 15.622 84.052 16.658 84.948 18.002C85.844 19.346 86.292 20.914 86.292 22.706C86.292 24.47 85.844 26.024 84.948 27.368C84.052 28.684 82.792 29.72 81.168 30.476C79.544 31.204 77.64 31.568 75.456 31.568H67.056V26.822H75.288C76.828 26.822 78.004 26.472 78.816 25.772C79.656 25.044 80.076 24.036 80.076 22.748C80.076 21.432 79.67 20.438 78.858 19.766C78.046 19.066 76.856 18.716 75.288 18.716H68.4V44H61.932ZM78.984 44L66.846 28.292H73.692L87.72 44H78.984ZM102.867 44C102.699 43.384 102.573 42.726 102.489 42.026C102.433 41.326 102.405 40.514 102.405 39.59H102.237V29.468C102.237 28.6 101.943 27.928 101.355 27.452C100.795 26.948 99.9552 26.696 98.8352 26.696C97.7712 26.696 96.9172 26.878 96.2732 27.242C95.6572 27.606 95.2512 28.138 95.0552 28.838H89.0492C89.3292 26.906 90.3232 25.31 92.0312 24.05C93.7392 22.79 96.0772 22.16 99.0452 22.16C102.125 22.16 104.477 22.846 106.101 24.218C107.725 25.59 108.537 27.564 108.537 30.14V39.59C108.537 40.29 108.579 41.004 108.663 41.732C108.775 42.432 108.943 43.188 109.167 44H102.867ZM95.3912 44.42C93.2632 44.42 91.5692 43.888 90.3092 42.824C89.0492 41.732 88.4192 40.29 88.4192 38.498C88.4192 36.51 89.1612 34.914 90.6452 33.71C92.1572 32.478 94.2572 31.68 96.9452 31.316L103.203 30.434V34.088L97.9952 34.886C96.8752 35.054 96.0492 35.362 95.5172 35.81C94.9852 36.258 94.7192 36.874 94.7192 37.658C94.7192 38.358 94.9712 38.89 95.4752 39.254C95.9792 39.618 96.6512 39.8 97.4912 39.8C98.8072 39.8 99.9272 39.45 100.851 38.75C101.775 38.022 102.237 37.182 102.237 36.23L102.825 39.59C102.209 41.186 101.271 42.39 100.011 43.202C98.7512 44.014 97.2112 44.42 95.3912 44.42ZM122.589 44.42C120.349 44.42 118.375 43.944 116.667 42.992C114.959 42.04 113.615 40.724 112.635 39.044C111.683 37.364 111.207 35.446 111.207 33.29C111.207 31.134 111.683 29.216 112.635 27.536C113.615 25.856 114.959 24.54 116.667 23.588C118.375 22.636 120.349 22.16 122.589 22.16C124.465 22.16 126.145 22.51 127.629 23.21C129.141 23.882 130.373 24.82 131.325 26.024C132.305 27.228 132.935 28.642 133.215 30.266H127.125C126.817 29.23 126.257 28.446 125.445 27.914C124.661 27.382 123.737 27.116 122.673 27.116C121.665 27.116 120.783 27.368 120.027 27.872C119.299 28.376 118.739 29.09 118.347 30.014C117.955 30.938 117.759 32.03 117.759 33.29C117.759 34.55 117.955 35.642 118.347 36.566C118.739 37.49 119.299 38.204 120.027 38.708C120.783 39.212 121.665 39.464 122.673 39.464C123.737 39.464 124.661 39.198 125.445 38.666C126.257 38.134 126.817 37.35 127.125 36.314H133.215C132.935 37.938 132.305 39.352 131.325 40.556C130.373 41.76 129.141 42.712 127.629 43.412C126.145 44.084 124.465 44.42 122.589 44.42ZM136.471 44V13.76H142.771V44H136.471ZM157.871 44.42C155.491 44.42 153.419 43.958 151.655 43.034C149.891 42.082 148.519 40.766 147.539 39.086C146.587 37.406 146.111 35.474 146.111 33.29C146.111 31.078 146.587 29.146 147.539 27.494C148.519 25.814 149.877 24.512 151.613 23.588C153.349 22.636 155.365 22.16 157.661 22.16C159.873 22.16 161.791 22.608 163.415 23.504C165.039 24.4 166.299 25.646 167.195 27.242C168.091 28.838 168.539 30.714 168.539 32.87C168.539 33.318 168.525 33.738 168.497 34.13C168.469 34.494 168.427 34.844 168.371 35.18H149.807V31.022H163.289L162.197 31.778C162.197 30.042 161.777 28.768 160.937 27.956C160.125 27.116 159.005 26.696 157.577 26.696C155.925 26.696 154.637 27.256 153.713 28.376C152.817 29.496 152.369 31.176 152.369 33.416C152.369 35.6 152.817 37.224 153.713 38.288C154.637 39.352 156.009 39.884 157.829 39.884C158.837 39.884 159.705 39.716 160.433 39.38C161.161 39.044 161.707 38.498 162.071 37.742H167.993C167.293 39.814 166.089 41.452 164.381 42.656C162.701 43.832 160.531 44.42 157.871 44.42ZM184.971 44.42C182.927 44.42 181.261 43.944 179.973 42.992C178.713 42.04 177.971 40.738 177.747 39.086L178.083 39.044V44H171.909V13.76H178.209V27.326L177.831 27.242C178.139 25.674 178.951 24.442 180.267 23.546C181.611 22.622 183.291 22.16 185.307 22.16C187.239 22.16 188.905 22.622 190.305 23.546C191.733 24.442 192.825 25.716 193.581 27.368C194.365 29.02 194.757 30.966 194.757 33.206C194.757 35.474 194.351 37.448 193.539 39.128C192.727 40.808 191.593 42.11 190.137 43.034C188.681 43.958 186.959 44.42 184.971 44.42ZM183.207 39.38C184.691 39.38 185.895 38.848 186.819 37.784C187.743 36.72 188.205 35.208 188.205 33.248C188.205 31.288 187.729 29.79 186.777 28.754C185.853 27.718 184.635 27.2 183.123 27.2C181.667 27.2 180.463 27.732 179.511 28.796C178.587 29.832 178.125 31.33 178.125 33.29C178.125 35.25 178.587 36.762 179.511 37.826C180.463 38.862 181.695 39.38 183.207 39.38ZM198.118 44V22.58H204.418V44H198.118ZM197.908 19.724V12.92H204.628V19.724H197.908ZM219.274 44.462C216.53 44.462 214.486 43.804 213.142 42.488C211.826 41.144 211.168 39.114 211.168 36.398V17.792L217.468 15.44V36.608C217.468 37.56 217.734 38.274 218.266 38.75C218.798 39.226 219.624 39.464 220.744 39.464C221.164 39.464 221.556 39.422 221.92 39.338C222.284 39.254 222.648 39.156 223.012 39.044V43.832C222.648 44.028 222.13 44.182 221.458 44.294C220.814 44.406 220.086 44.462 219.274 44.462ZM207.178 27.368V22.58H223.012V27.368H207.178Z" fill="#1B1B1B"/>
<path d="M225.391 7.39453V6H231.961V7.39453H229.512V14H227.84V7.39453H225.391ZM233.043 6H235.129L237.332 11.375H237.426L239.629 6H241.715V14H240.074V8.79297H240.008L237.938 13.9609H236.82L234.75 8.77344H234.684V14H233.043V6Z" fill="#1B1B1B"/>
</svg>
